<svg viewBox="0 0 2000 1000" xmlns="http://www.w3.org/2000/svg"><path fill="none" d="M0 0h2000v1000H0z"/><rect x="1104" y="619" width="6" height="7" fill="#fcffa6" rx="0" transform="matrix(1.00973 .27835 -.0713 .9707 88.016 -134.317)"/><rect x="548" y="92" width="8" height="11" fill="#CAB8FF" rx="0" transform="matrix(.98805 .61566 -.35962 .78801 73.338 -319.176)"/><rect x="1082" y="558" width="6" height="17" fill="#B5DEFF" rx="0" transform="matrix(-.4528 .83179 -.88517 -.58242 2192.447 -197.362)"/><rect x="737" y="665" width="7" height="15" fill="#B5DEFF" rx="0" transform="matrix(-.9434 .31134 -.30846 -.9582 1717.936 995.421)"/><rect x="856" y="347" width="8" height="13" fill="#CAB8FF" rx="0" transform="matrix(.83852 .7318 -.58456 .68241 426.169 -547.113)"/><rect x="817" y="384" width="6" height="6" fill="#fcffa6" rx="0" transform="matrix(.69123 .90987 -.71591 .50435 519.393 -319.142)"/><rect x="572" y="489" width="5" height="13" fill="#B5DEFF" rx="0" transform="matrix(.24933 1 -1.08585 -.34433 1142.163 289.43)"/><rect x="1444" y="616" width="8" height="10" fill="#B5DEFF" rx="0" transform="matrix(.99863 .33869 -.05234 .98362 34.485 -65.043)"/><rect x="365" y="513" width="5" height="10" fill="#fcffa6" rx="0" transform="matrix(1.00092 -.01748 -.1225 1.00122 19.48 -13.47)"/><rect x="1880" y="112" width="9" height="9" fill="#B5DEFF" rx="0" transform="matrix(.73991 .98263 -.74837 .35765 674.662 -1200.78)"/><rect x="1770" y="154" width="7" height="11" fill="#B5DEFF" rx="0" transform="matrix(-1.04043 -.19665 -.26737 -1.01168 3789.239 1111.805)"/><rect x="1107" y="606" width="7" height="15" fill="#C1FFD7" rx="0" transform="matrix(-.21874 .97542 -.96659 -.26136 2027.07 -465.427)"/><rect x="1083" y="206" width="8" height="9" fill="#fcffa6" rx="0" transform="matrix(-.63851 .67416 -.7742 -.74873 1964.673 -498.167)"/><rect x="1335" y="895" width="7" height="11" fill="#B5DEFF" rx="0" transform="matrix(-.53365 .64859 -.88282 -.80094 2977.484 1087.337)"/><rect x="1866" y="227" width="8" height="12" fill="#CAB8FF" rx="0" transform="matrix(-.83158 .42288 -.58144 -.90686 3602.445 -281.178)"/><rect x="1030" y="424" width="5" height="12" fill="#B5DEFF" rx="0" transform="matrix(.68366 .682 -.73314 .73135 611.799 -588.645)"/><rect x="61" y="436" width="7" height="13" fill="#B5DEFF" rx="0" transform="matrix(-.69401 .50191 -.79033 -.86933 570.717 800.45)"/><rect x="372" y="798" width="6" height="13" fill="#fcffa6" rx="0" transform="matrix(.95697 .42365 -.30821 .90852 415.374 -111.496)"/><rect x="924" y="986" width="9" height="14" fill="#B5DEFF" rx="0" transform="matrix(.8586 .60411 -.51593 .80169 662.362 -282.76)"/><rect x="578" y="752" width="6" height="12" fill="#CAB8FF" rx="0" transform="matrix(.12223 .99817 -.99328 .0698 1327.436 104.865)"/><rect x="1124" y="488" width="8" height="21" fill="#CAB8FF" rx="0" transform="matrix(.93605 .24196 -.37865 .97044 178.824 -238.506)"/><rect x="941" y="544" width="8" height="19" fill="#CAB8FF" rx="0" transform="matrix(.804 .83918 -.66952 .54497 735.03 -574.168)"/><rect x="845" y="795" width="9" height="10" fill="#CAB8FF" rx="0" transform="matrix(.94823 .57498 -.38498 .82115 488.075 -285.962)"/><rect x="1586" y="151" width="5" height="13" fill="#fcffa6" rx="0" transform="matrix(-.01938 .97564 -1.02014 -.24325 1819.794 -1187.034)"/><rect x="1108" y="417" width="6" height="13" fill="#C1FFD7" rx="0" transform="matrix(-.22731 1 -.98809 -.0524 1737.15 -723.53)"/><rect x="897" y="252" width="7" height="7" fill="#B5DEFF" rx="0" transform="matrix(1.01404 .12187 .05314 .99255 18.835 -107.839)"/><rect x="412" y="400" width="5" height="8" fill="#fcffa6" rx="0" transform="matrix(.22235 1.0457 -.93293 .1099 604.254 60.833)"/><rect x="1908" y="944" width="9" height="19" fill="#fcffa6" rx="0" transform="matrix(-.12187 .9968 -.99255 -.0872 3091.968 -936.516)"/><rect x="1673" y="258" width="8" height="9" fill="#B5DEFF" rx="0" transform="matrix(.95757 .76079 -.38971 .73469 246.945 -628.76)"/><rect x="1336" y="808" width="7" height="13" fill="#C1FFD7" rx="0" transform="matrix(-.77403 .64524 -.62735 -.76897 2936.052 459.333)"/><rect x="539" y="122" width="7" height="14" fill="#CAB8FF" rx="0" transform="matrix(-.27716 .82936 -1.01168 -.58073 865.142 -160.092)"/><rect x="1329" y="987" width="5" height="6" fill="#C1FFD7" rx="0" transform="matrix(.61556 .82228 -.7851 .57577 1411.896 -791.368)"/><rect x="1100" y="663" width="9" height="17" fill="#CAB8FF" rx="0" transform="matrix(-.9401 .20906 -.36056 -.98354 2426.234 1217.128)"/><rect x="1378" y="402" width="7" height="20" fill="#C1FFD7" rx="0" transform="matrix(.46824 .9974 -.92845 .15797 1224.03 -836.828)"/><rect x="1807" y="94" width="9" height="15" fill="#C1FFD7" rx="0" transform="matrix(-.60311 .56131 -.85283 -.86435 3068.34 -375.929)"/><rect x="693" y="88" width="6" height="12" fill="#CAB8FF" rx="0" transform="matrix(-.1927 .99384 -.93607 -.36173 859.273 -324.057)"/><rect x="1933" y="374" width="5" height="12" fill="#C1FFD7" rx="0" transform="matrix(-.253 .9707 -.95763 -.27835 2806.168 -1665.052)"/><rect x="1164" y="413" width="5" height="11" fill="#fcffa6" rx="0" transform="matrix(.17311 .96258 -.98924 .27602 1302.595 -758.73)"/><rect x="1930" y="150" width="6" height="11" fill="#fcffa6" rx="0" transform="matrix(.624 .80562 -.75377 .62942 744.167 -1088.757)"/><rect x="1693" y="521" width="8" height="15" fill="#B5DEFF" rx="0" transform="matrix(-.56744 .8151 -.81458 -.5922 3135.452 -750.1)"/><rect x="941" y="396" width="6" height="14" fill="#B5DEFF" rx="0" transform="matrix(-.7172 .67169 -.69226 -.74598 1874.568 152.149)"/><rect x="530" y="962" width="7" height="16" fill="#fcffa6" rx="0" transform="matrix(.46178 .98395 -.9097 .22716 1279.383 299.697)"/><rect x="1409" y="870" width="5" height="12" fill="#CAB8FF" rx="0" transform="matrix(.51469 .85769 -.85667 .51535 1403.147 -736.787)"/><rect x="124" y="837" width="8" height="10" fill="#B5DEFF" rx="0" transform="matrix(.49732 .99418 -.83462 .34232 674.22 468.1)"/><rect x="590" y="587" width="8" height="14" fill="#fcffa6" rx="0" transform="matrix(.10833 .9927 -1.02066 -.12189 1281.436 66.37)"/><rect x="1847" y="90" width="7" height="19" fill="#C1FFD7" rx="0" transform="matrix(.78843 .93064 -.7235 .41435 569.508 -1304.184)"/><rect x="488" y="185" width="6" height="15" fill="#B5DEFF" rx="0" transform="matrix(.0198 .97106 -1.02375 .29688 667.214 -428.015)"/><rect x="537" y="674" width="6" height="8" fill="#B5DEFF" rx="0" transform="matrix(-.5736 .82916 -.81914 -.55928 1381.112 618.868)"/><rect x="284" y="113" width="7" height="20" fill="#fcffa6" rx="0" transform="matrix(.9766 .13936 -.22652 .99163 15.183 -23.97)"/><rect x="524" y="267" width="6" height="13" fill="#CAB8FF" rx="0" transform="matrix(1.0066 .22842 -.01779 .9894 14.179 -24.555)"/><rect x="115" y="165" width="5" height="14" fill="#fcffa6" rx="0" transform="matrix(-.19126 1.00921 -.9842 -.03524 306.54 42.966)"/><rect x="1326" y="948" width="8" height="17" fill="#fcffa6" rx="0" transform="matrix(.71495 .72034 -.67328 .72034 830.676 -432.035)"/><rect x="955" y="725" width="7" height="9" fill="#B5DEFF" rx="0" transform="matrix(.91369 .53857 -.33613 .89633 220.462 -147.552)"/><rect x="428" y="277" width="8" height="14" fill="#fcffa6" rx="0" transform="matrix(-.4098 .84329 -.9197 -.54764 887.492 120.633)"/><rect x="1384" y="692" width="5" height="6" fill="#C1FFD7" rx="0" transform="matrix(-.81964 .40674 -.61765 -.91355 3112.652 765.974)"/><rect x="1606" y="59" width="6" height="11" fill="#fcffa6" rx="0" transform="matrix(-.47888 .8636 -.8702 -.5189 2414.57 -1489.13)"/><rect x="97" y="62" width="5" height="14" fill="#CAB8FF" rx="0" transform="matrix(-.7166 .3678 -.85212 -.95814 257.716 121.487)"/><rect x="1069" y="918" width="5" height="11" fill="#C1FFD7" rx="0" transform="matrix(.88148 .47409 -.4515 .89162 412.068 -257.308)"/><rect x="540" y="635" width="5" height="9" fill="#fcffa6" rx="0" transform="matrix(-.73365 .74496 -.68177 -.67076 1269.204 702.249)"/><rect x="785" y="321" width="7" height="7" fill="#C1FFD7" rx="0" transform="matrix(.77955 .91963 -.65528 .50976 416.898 -309.846)"/><rect x="1204" y="685" width="8" height="23" fill="#fcffa6" rx="0" transform="matrix(-.4759 .71406 -.92454 -.71406 2579.588 501.034)"/><rect x="1881" y="291" width="8" height="9" fill="#C1FFD7" rx="0" transform="matrix(-.94497 .0716 -.45453 -1.0238 3916.302 898.27)"/><rect x="1555" y="732" width="5" height="9" fill="#fcffa6" rx="0" transform="matrix(.71512 1.04733 -.8543 .1472 1390.242 -466.83)"/><rect x="956" y="764" width="6" height="7" fill="#fcffa6" rx="0" transform="matrix(.05235 1 -.99909 .01746 1689.28 -188.157)"/><rect x="937" y="528" width="8" height="19" fill="#B5DEFF" rx="0" transform="matrix(.98171 .22842 -.12562 .9894 184.296 -375.171)"/><rect x="338" y="802" width="8" height="13" fill="#C1FFD7" rx="0" transform="matrix(-.57946 .69635 -.836 -.7211 1426.313 1129.438)"/><rect x="1095" y="509" width="5" height="11" fill="#B5DEFF" rx="0" transform="matrix(.50562 1.02172 -.9964 -.03568 1298.194 -355.198)"/><rect x="706" y="41" width="6" height="16" fill="#C1FFD7" rx="0" transform="matrix(-1.00326 -.01752 -.39587 -1.00367 1475.782 172.63)"/><rect x="845" y="562" width="5" height="9" fill="#fcffa6" rx="0" transform="matrix(.95965 .56227 -.35575 .8336 400.121 -471.339)"/><rect x="713" y="591" width="5" height="7" fill="#B5DEFF" rx="0" transform="matrix(.9482 .56469 -.36513 .83718 314.942 -206.684)"/><rect x="271" y="487" width="7" height="10" fill="#B5DEFF" rx="0" transform="matrix(.60236 .98652 -.8746 .22776 663.08 152.622)"/><rect x="83" y="761" width="9" height="25" fill="#C1FFD7" rx="0" transform="matrix(-.95667 .10583 -.34691 -1.00692 508.43 1556.95)"/><rect x="499" y="173" width="6" height="8" fill="#B5DEFF" rx="0" transform="matrix(-.79057 .27373 -.70277 -1.02158 1072.423 393.259)"/><rect x="1535" y="248" width="7" height="12" fill="#B5DEFF" rx="0" transform="matrix(-.10387 .98616 -.99572 -.17389 1972.498 -1299.668)"/><rect x="1354" y="197" width="9" height="19" fill="#C1FFD7" rx="0" transform="matrix(.60182 .78813 -.79864 .61576 705.853 -1015.042)"/><rect x="1697" y="442" width="9" height="24" fill="#C1FFD7" rx="0" transform="matrix(.72101 .47671 -.74167 .89657 789.772 -1064.191)"/><rect x="1518" y="288" width="9" height="18" fill="#fcffa6" rx="0" transform="matrix(-.91266 .07294 -.65748 -1.04314 3325.94 961.232)"/><rect x="807" y="681" width="6" height="11" fill="#fcffa6" rx="0" transform="matrix(-.0877 .97044 -1.00859 -.24196 1691.992 52.407)"/><rect x="1939" y="743" width="5" height="9" fill="#fcffa6" rx="0" transform="matrix(.93421 .3092 -.3589 .95164 324.676 -496.372)"/><rect x="46" y="451" width="6" height="16" fill="#B5DEFF" rx="0" transform="matrix(.78801 .49085 -.61566 .88552 292.976 20.733)"/><rect x="271" y="101" width="6" height="8" fill="#fcffa6" rx="0" transform="matrix(-.20722 .97318 -.97203 -.26076 423.148 -100.628)"/><rect x="558" y="963" width="6" height="8" fill="#C1FFD7" rx="0" transform="matrix(-.99006 -.07106 -.08638 -1.01624 1162.38 2098.613)"/><rect x="906" y="263" width="6" height="9" fill="#fcffa6" rx="0" transform="matrix(.24823 .98737 -1.10807 -.37902 1146.226 -215.642)"/><rect x="225" y="844" width="8" height="14" fill="#C1FFD7" rx="0" transform="matrix(.8113 .89763 -.66434 .49756 751.723 274.887)"/><rect x="293" y="562" width="8" height="15" fill="#C1FFD7" rx="0" transform="matrix(.53583 .94893 -.8588 .34538 669.686 132.714)"/><rect x="1055" y="603" width="6" height="17" fill="#CAB8FF" rx="0" transform="matrix(-.88616 .18065 -.51001 -1.0245 2371.405 1350.232)"/><rect x="505" y="796" width="5" height="14" fill="#fcffa6" rx="0" transform="matrix(.66117 .82916 -.76007 .55928 893.9 -75.76)"/><rect x="397" y="212" width="6" height="7" fill="#B5DEFF" rx="0" transform="matrix(1.00452 .01745 .25046 .99985 1.96 -6.948)"/><rect x="806" y="216" width="6" height="10" fill="#B5DEFF" rx="0" transform="matrix(-.35811 .93415 -.93303 -.35859 1311.64 -483.73)"/><rect x="1253" y="954" width="8" height="17" fill="#CAB8FF" rx="0" transform="matrix(-1.00595 .10467 .0173 -.99589 2442.125 1723.592)"/><rect x="986" y="199" width="5" height="13" fill="#fcffa6" rx="0" transform="matrix(.19116 .95996 -.98327 .29349 999.527 -890.213)"/><rect x="1082" y="755" width="9" height="12" fill="#C1FFD7" rx="0" transform="matrix(.1695 1.00986 -.97242 .10614 1542.232 -225.411)"/><rect x="577" y="953" width="7" height="13" fill="#B5DEFF" rx="0" transform="matrix(-.14011 .9604 -.9957 -.31205 1653.568 782.986)"/><rect x="1473" y="200" width="8" height="16" fill="#C1FFD7" rx="0" transform="matrix(.92477 .86785 -.59661 .52146 378.803 -948.347)"/><rect x="269" y="906" width="8" height="14" fill="#C1FFD7" rx="0" transform="matrix(-.9546 .26076 -.27232 -.97318 682.75 1763.845)"/><rect x="1752" y="626" width="9" height="26" fill="#CAB8FF" rx="0" transform="matrix(.82904 .44268 -.5592 .90763 657.62 -965.4)"/><rect x="1486" y="765" width="6" height="15" fill="#B5DEFF" rx="0" transform="matrix(-.96372 .10493 -.3612 -.99832 3424.142 1257.195)"/><rect x="869" y="776" width="6" height="16" fill="#B5DEFF" rx="0" transform="matrix(1.00067 .25945 -.11975 .96828 246.988 -262.353)"/><rect x="363" y="817" width="7" height="13" fill="#C1FFD7" rx="0" transform="matrix(.10546 1.00107 -.9934 .05246 1243.884 387.776)"/><rect x="383" y="889" width="6" height="17" fill="#B5DEFF" rx="0" transform="matrix(.0674 1.00506 -.99026 .07028 1132.719 493.867)"/></svg>