<svg id="visual" viewBox="0 0 960 540" width="960" height="540" xmlns="http://www.w3.org/2000/svg" xmlns:xlink="http://www.w3.org/1999/xlink" version="1.1"><path d="M0 442L22.8 437.5C45.7 433 91.3 424 137 430.3C182.7 436.7 228.3 458.3 274 468.5C319.7 478.7 365.3 477.3 411.2 458.7C457 440 503 404 548.8 398.3C594.7 392.7 640.3 417.3 686 417.5C731.7 417.7 777.3 393.3 823 387C868.7 380.7 914.3 392.3 937.2 398.2L960 404L960 541L937.2 541C914.3 541 868.7 541 823 541C777.3 541 731.7 541 686 541C640.3 541 594.7 541 548.8 541C503 541 457 541 411.2 541C365.3 541 319.7 541 274 541C228.3 541 182.7 541 137 541C91.3 541 45.7 541 22.8 541L0 541Z" fill="#4485ef" stroke-linecap="round" stroke-linejoin="miter"></path></svg>